<?xml version="1.0" encoding="utf-8"?>
<!-- Generator: Adobe Illustrator 22.1.0, SVG Export Plug-In . SVG Version: 6.00 Build 0)  -->
<svg version="1.1" id="Layer_2_1_" xmlns="http://www.w3.org/2000/svg" xmlns:xlink="http://www.w3.org/1999/xlink" x="0px" y="0px"
	 viewBox="0 0 199.5 231.3" style="enable-background:new 0 0 199.5 231.3;" xml:space="preserve">
<style type="text/css">
	.st0{fill:#A8A8A8;}
	.st1{display:none;fill:#2EB2FF;}
	.st2{fill:#99E265;}
	.st3{fill:#79C636;}
	.st4{fill:#FFBD4A;}
	.st5{fill:#FF9D00;}
	.st6{fill:#FF5C5C;}
	.st7{fill:#ED3535;}
	.st8{fill:#45C1FF;}
	.st9{fill:#0FA6F2;}
	.st10{fill:#545454;stroke:#545454;}
	.st11{font-family:'JosefinSans-Thin';}
	.st12{font-size:55px;}
	.st13{letter-spacing:3;}
</style>
<g>
	<g>
		<rect x="64.9" y="99.8" transform="matrix(0.5 -0.866 0.866 0.5 -45.706 125.1645)" class="st0" width="41.2" height="4.8"/>
		<rect x="115" y="60.7" transform="matrix(0.9634 -0.268 0.268 0.9634 -11.9421 38.6501)" class="st0" width="41.2" height="4.8"/>
		
			<rect x="76.7" y="26.9" transform="matrix(0.7071 -0.7071 0.7071 0.7071 -10.4359 69.8538)" class="st0" width="4.8" height="41.2"/>
		<circle class="st1" cx="103" cy="72.1" r="24.3"/>
		<path class="st2" d="M66,0.5C60.1,2,56.7,6.8,55.4,12.6c-4-4.4-9.4-6.9-15.2-5.3c-8.6,2.2-12.9,11-10.6,19.6
			c2.5,9.7,12.1,14.3,26.6,21.2c7.6,3.7,8.3,4.1,9.8,4.8c0.9-1.4,1.3-2,6.2-9C81.4,30.7,87.5,22,84.9,12.4C82.5,3.8,74.5-1.7,66,0.5
			L66,0.5z"/>
	</g>
	<path class="st3" d="M84.8,12.4c2.5,9.7-3.5,18.4-12.7,31.5c-4.9,6.9-5.2,7.6-6.2,9L55.4,12.6C56.7,6.8,60.1,2,66,0.5
		C74.5-1.7,82.5,3.8,84.8,12.4z"/>
</g>
<g>
	<g>
		<path class="st4" d="M166.9,50.3c-2.8-1.5-5.8-0.8-8.3,1c0-3.1-1.2-5.9-4-7.4c-4.1-2.1-8.8-0.2-10.9,3.9
			c-2.4,4.6-0.3,9.7,2.9,17.5c1.7,4.1,1.8,4.5,2.1,5.3c0.8-0.2,1.2-0.3,5.5-1.3c8.1-1.9,13.5-3.1,15.9-7.8
			C172.1,57.4,170.9,52.4,166.9,50.3L166.9,50.3z"/>
	</g>
	<path class="st5" d="M170,61.5c-2.4,4.6-7.8,5.9-15.9,7.8c-4.3,1-4.7,1.1-5.5,1.3l10-19.3c2.6-1.8,5.5-2.4,8.3-1
		C170.9,52.4,172.1,57.4,170,61.5z"/>
</g>
<g>
	<g>
		<path class="st6" d="M68.6,100.8c-6.6-0.9-12.2,3.9-13,10.4c-1,7.3,4.5,13.1,12.7,21.9c4.4,4.6,4.7,5.1,5.5,6c1-0.6,1.5-1,6.9-4.4
			c10.2-6.4,17-10.6,18-17.9c0.9-6.5-3.3-12.5-9.9-13.4c-4.6-0.6-8.4,1.7-11,5.3C76.2,104.6,73.2,101.4,68.6,100.8L68.6,100.8z"/>
	</g>
	<path class="st7" d="M68.5,100.8c4.6,0.6,7.6,3.8,9.2,7.9l-4,30.4c-0.8-0.9-1.2-1.3-5.5-6c-8.2-8.8-13.7-14.6-12.7-21.9
		C56.3,104.6,61.9,99.9,68.5,100.8z"/>
</g>
<g>
	<g>
		<path class="st8" d="M89.7,48.9c-9.5-0.2-16.5,7.4-16.7,16.7c-0.2,10.5,8.4,17.8,21.4,28.9c6.9,5.9,7.4,6.4,8.8,7.6
			c1.3-1.1,2-1.7,9.1-7.2c13.4-10.6,22.3-17.6,22.5-28c0.2-9.4-6.6-17.2-16.1-17.3c-6.6-0.1-11.5,3.7-14.6,9.1
			C101.1,53,96.3,49,89.7,48.9L89.7,48.9z"/>
	</g>
	<path class="st9" d="M89.6,48.9c6.6,0.1,11.4,4.1,14.3,9.7l-0.8,43.4c-1.3-1.1-1.9-1.7-8.8-7.6C81.3,83.3,72.7,76,72.9,65.5
		C73.1,56.3,80.1,48.7,89.6,48.9z"/>
</g>
<text transform="matrix(1 0 0 1 0.5001 172.9716)" class="st10 st11 st12 st13">EAGLE</text>
<g>
	<text transform="matrix(1 0 0 1 4.5001 217.9716)" class="st10 st11 st12 st13">ASSIST</text>
</g>
</svg>
